<svg xmlns="http://www.w3.org/2000/svg" viewBox="0 0 137.84 115.35"><defs><style>.cls-1{fill:#fff;}.cls-2,.cls-3{fill:none;stroke:#1d1d1b;stroke-miterlimit:10;}.cls-2{stroke-width:7px;}.cls-3{stroke-width:5px;}</style></defs><g id="Calque_2" data-name="Calque 2"><g id="Calque_1-2" data-name="Calque 1"><path class="cls-1" d="M103.86,48.41a42.09,42.09,0,0,0,19.67,13.7c-2.39.4-18.29,3.41-26.71,18.36-6.79,12.07-4.32,24.1-3.58,27.21a61.26,61.26,0,0,0-31-9.83A57.22,57.22,0,0,0,36.7,103c.69-2,6.22-19-4.69-34.75A41.54,41.54,0,0,0,10.48,52.67,48.37,48.37,0,0,0,34.57,32,48.2,48.2,0,0,0,40.78,7.09a54.65,54.65,0,0,0,21.31,9.67,53.31,53.31,0,0,0,35.21-5C96.69,13.91,91.51,32.59,103.86,48.41ZM91.64,59.31a17,17,0,0,1-8-5.54c-5-6.4-2.91-14-2.66-14.82a21.47,21.47,0,0,1-14.25,2,22.44,22.44,0,0,1-8.63-3.91A19.08,19.08,0,0,1,45.86,55.49a16.85,16.85,0,0,1,8.72,6.3,16.26,16.26,0,0,1,1.9,14.07,22.91,22.91,0,0,1,10.35-2.07,24.76,24.76,0,0,1,12.54,4,15.58,15.58,0,0,1,1.45-11C84.23,60.7,90.67,59.48,91.64,59.31Z"/><path class="cls-2" d="M93.24,107.68a61.26,61.26,0,0,0-31-9.83A57.22,57.22,0,0,0,36.7,103c.69-2,6.22-19-4.69-34.75A41.54,41.54,0,0,0,10.48,52.67,48.37,48.37,0,0,0,34.57,32,48.2,48.2,0,0,0,40.78,7.09a54.65,54.65,0,0,0,21.31,9.67,53.31,53.31,0,0,0,35.21-5c-.61,2.1-5.79,20.78,6.56,36.6a42.09,42.09,0,0,0,19.67,13.7c-2.39.4-18.29,3.41-26.71,18.36C90,92.54,92.5,104.57,93.24,107.68Z"/><path class="cls-3" d="M79.37,77.77a24.76,24.76,0,0,0-12.54-4,22.91,22.91,0,0,0-10.35,2.07,16.26,16.26,0,0,0-1.9-14.07,16.85,16.85,0,0,0-8.72-6.3A19.08,19.08,0,0,0,58.13,37.05,22.44,22.44,0,0,0,66.76,41,21.47,21.47,0,0,0,81,39c-.25.85-2.34,8.42,2.66,14.82a17,17,0,0,0,8,5.54c-1,.17-7.41,1.39-10.82,7.44A15.58,15.58,0,0,0,79.37,77.77Z"/></g></g></svg>