<svg id="Calque_1" data-name="Calque 1" xmlns="http://www.w3.org/2000/svg" viewBox="0 0 421.43 316.95"><defs><style>.cls-1,.cls-5,.cls-8{fill:#fff;}.cls-2,.cls-3,.cls-6{fill:none;}.cls-2,.cls-3,.cls-4,.cls-5,.cls-6,.cls-7,.cls-8{stroke:#1d1d1b;stroke-miterlimit:10;}.cls-2{stroke-width:7px;}.cls-3,.cls-4,.cls-5{stroke-width:5px;}.cls-4,.cls-7,.cls-9{fill:#1d1d1b;}.cls-6,.cls-7,.cls-8{stroke-width:3px;}</style></defs><path class="cls-1" d="M129.14,93.62A42.08,42.08,0,0,0,149,107.1c-2.39.43-18.26,3.61-26.51,18.65-6.66,12.14-4.06,24.15-3.29,27.25a61.21,61.21,0,0,0-31.07-9.49,57.24,57.24,0,0,0-25.51,5.38c.66-2,6-19.08-5.07-34.68a41.49,41.49,0,0,0-21.7-15.32A48.49,48.49,0,0,0,59.68,78a48.16,48.16,0,0,0,5.93-25A54.67,54.67,0,0,0,87,62.42a53.27,53.27,0,0,0,35.15-5.33C121.59,59.2,116.62,77.93,129.14,93.62Zm-12.1,11a16.92,16.92,0,0,1-8-5.45c-5.07-6.35-3.06-13.94-2.82-14.79A21.51,21.51,0,0,1,92,86.56a22,22,0,0,1-8.67-3.82,19.09,19.09,0,0,1-12.07,18.59,16.81,16.81,0,0,1,8.79,6.2,16.26,16.26,0,0,1,2,14,22.91,22.91,0,0,1,10.33-2.18A24.72,24.72,0,0,1,105,123.24a15.57,15.57,0,0,1,1.33-11C109.64,106.12,116.07,104.83,117,104.65Z" transform="translate(-25.31 -45.93)"/><path class="cls-2" d="M119.16,153a61.21,61.21,0,0,0-31.07-9.49,57.24,57.24,0,0,0-25.51,5.38c.66-2,6-19.08-5.07-34.68a41.49,41.49,0,0,0-21.7-15.32A48.49,48.49,0,0,0,59.68,78a48.16,48.16,0,0,0,5.93-25A54.67,54.67,0,0,0,87,62.42a53.27,53.27,0,0,0,35.15-5.33c-.59,2.11-5.56,20.84,7,36.53A42.08,42.08,0,0,0,149,107.1c-2.39.43-18.26,3.61-26.51,18.65C115.79,137.89,118.39,149.9,119.16,153Z" transform="translate(-25.31 -45.93)"/><path class="cls-3" d="M105,123.24a24.72,24.72,0,0,0-12.58-3.84,22.91,22.91,0,0,0-10.33,2.18,16.26,16.26,0,0,0-2-14,16.81,16.81,0,0,0-8.79-6.2A19.09,19.09,0,0,0,83.29,82.74,22,22,0,0,0,92,86.56a21.51,21.51,0,0,0,14.23-2.15c-.24.85-2.25,8.44,2.82,14.79a16.92,16.92,0,0,0,8,5.45c-1,.18-7.4,1.47-10.74,7.56A15.57,15.57,0,0,0,105,123.24Z" transform="translate(-25.31 -45.93)"/><path class="cls-4" d="M396.53,190.77c-7.91,20.49,13.14,44.48,22.14,43.18,3.95-.57,3-5.61,11.24-19.46,9-15.09,14.8-16.86,14.3-23.72-.66-8.93-11.45-19.34-23.84-19.32S399.4,183.33,396.53,190.77Z" transform="translate(-25.31 -45.93)"/><circle class="cls-5" cx="405.99" cy="145.64" r="9.7"/><path class="cls-4" d="M141.34,208.47C149.25,229,128.2,253,119.2,251.65c-4-.57-3-5.61-11.24-19.45-9-15.1-14.8-16.87-14.3-23.73.66-8.92,11.45-19.33,23.84-19.32S138.47,201,141.34,208.47Z" transform="translate(-25.31 -45.93)"/><rect class="cls-5" x="94.29" y="125.85" width="299.91" height="188.6" rx="8"/><path class="cls-5" d="M119.6,199.7,417.47,199" transform="translate(-25.31 -45.93)"/><line class="cls-5" x1="96.33" y1="299.81" x2="392.16" y2="299.81"/><rect class="cls-5" x="156.93" y="170.79" width="30.64" height="34.98" rx="12.43"/><circle class="cls-4" cx="172.24" cy="188.28" r="8.98"/><circle class="cls-5" cx="168.69" cy="188.28" r="5.12"/><rect class="cls-5" x="327.82" y="93.51" width="52.09" height="23.83"/><rect class="cls-5" x="253.61" y="100.32" width="25.87" height="21.79"/><circle class="cls-5" cx="266.54" cy="68.49" r="36.94"/><rect class="cls-4" x="243.22" y="54.02" width="47.15" height="29.96"/><circle class="cls-5" cx="256.33" cy="68.49" r="7.32"/><rect class="cls-6" x="341.44" y="117.34" width="27.23" height="5.11"/><rect class="cls-6" x="117.78" y="105.43" width="37.11" height="20.43"/><polyline class="cls-6" points="131.73 143.22 247.34 141.51 246.12 125.85"/><rect class="cls-6" x="292.75" y="125.85" width="27.23" height="17.36"/><rect class="cls-7" x="297.61" y="128.24" width="18.21" height="8.85"/><rect class="cls-7" x="99.39" y="115.64" width="80.34" height="10.21"/><path class="cls-8" d="M380.11,275.36H368.53V236.13a6.15,6.15,0,0,1,5-4.43,6.23,6.23,0,0,1,6.56,4.43Z" transform="translate(-25.31 -45.93)"/><circle class="cls-7" cx="374.32" cy="275.36" r="9.28" transform="translate(-110.38 299.4) rotate(-45)"/><path class="cls-7" d="M497.81,246" transform="translate(-25.31 -45.93)"/><rect class="cls-6" x="198.12" y="125.51" width="19.74" height="12.6"/><rect class="cls-7" x="201.63" y="127.24" width="10.44" height="4.57"/><rect class="cls-9" x="130.03" y="100.32" width="12.94" height="3.4"/><circle class="cls-9" cx="194.71" cy="229.43" r="10.45"/><circle class="cls-9" cx="230.47" cy="326.43" r="6.08" transform="translate(-162.5 123.98) rotate(-31.72)"/><path class="cls-9" d="M228.19,309.32a22.63,22.63,0,0,0-3.74,7.49c-1.12,3.25-4.19,12.18-.68,16,2.45,2.68,6.64,1.66,22.46-1.36,21.58-4.13,25.91-4.47,26.94-7.78,1.8-5.82-8.8-13.47-9.57-14C252.58,301.86,235.15,301,228.19,309.32Z" transform="translate(-25.31 -45.93)"/><circle class="cls-5" cx="253.61" cy="221.51" r="56.51"/><circle class="cls-5" cx="212.07" cy="273.17" r="7.32"/><circle class="cls-5" cx="239.19" cy="220.15" r="7.32"/><circle class="cls-4" cx="250.63" cy="220.15" r="21.02"/><circle class="cls-5" cx="240.02" cy="214.89" r="7.32"/><circle class="cls-5" cx="81.26" cy="163.34" r="9.7"/><circle class="cls-2" cx="253.61" cy="221.51" r="39.15"/></svg>