<svg height="512pt" viewBox="0 -49 512 511" width="512pt" xmlns="http://www.w3.org/2000/svg"><path d="m492 .5h-472c-11.046875 0-20 8.953125-20 20v372c0 11.046875 8.953125 20 20 20h472c11.046875 0 20-8.953125 20-20v-372c0-11.046875-8.953125-20-20-20zm-20 372h-432v-332h432zm-393.453125-58.488281v-93.398438c0-11.046875 8.957031-20 20-20 11.046875 0 20 8.953125 20 20v45.113281l81.898437-81.898437c7.8125-7.8125 20.476563-7.8125 28.285157 0 7.808593 7.808594 7.8125 20.472656 0 28.28125l-81.898438 81.902344h45.113281c11.042969 0 20 8.953125 20 20 0 11.042969-8.957031 20-20 20h-93.398437c-10.960937 0-20-8.910157-20-20zm204.722656-84.839844c-7.8125-7.808594-7.8125-20.472656 0-28.28125l81.898438-81.902344h-45.113281c-11.042969 0-20-8.953125-20-20 0-11.042969 8.957031-20 20-20h93.398437c10.996094 0 20 8.945313 20 20v93.398438c0 11.046875-8.957031 20-20 20-11.046875 0-20-8.953125-20-20v-45.113281l-81.898437 81.898437c-7.8125 7.8125-20.476563 7.8125-28.285157 0zm0 0"/></svg>